<?xml version="1.0" encoding="UTF-8"?>
<svg xmlns="http://www.w3.org/2000/svg" xmlns:xlink="http://www.w3.org/1999/xlink" width="147px" height="24px" viewBox="0 0 147 24" version="1.1">
<defs>
<filter id="alpha" filterUnits="objectBoundingBox" x="0%" y="0%" width="100%" height="100%">
  <feColorMatrix type="matrix" in="SourceGraphic" values="0 0 0 0 1 0 0 0 0 1 0 0 0 0 1 0 0 0 1 0"/>
</filter>
<mask id="mask0">
  <g filter="url(#alpha)">
<rect x="0" y="0" width="147" height="24" style="fill:rgb(0%,0%,0%);fill-opacity:0.501961;stroke:none;"/>
  </g>
</mask>
<clipPath id="clip1">
  <rect x="0" y="0" width="147" height="24"/>
</clipPath>
<g id="surface5" clip-path="url(#clip1)">
<path style=" stroke:none;fill-rule:nonzero;fill:rgb(95.294118%,37.647059%,23.529412%);fill-opacity:1;" d="M 15.757812 13.398438 C 15.757812 11.804688 14.496094 10.511719 12.9375 10.511719 C 11.382812 10.511719 10.121094 11.804688 10.121094 13.398438 C 10.121094 14.992188 11.382812 16.285156 12.9375 16.285156 C 14.496094 16.285156 15.757812 14.992188 15.757812 13.398438 Z M 15.757812 13.398438 "/>
</g>
</defs>
<g id="surface1">
<path style=" stroke:none;fill-rule:nonzero;fill:rgb(100%,100%,100%);fill-opacity:1;" d="M 143.164062 6.863281 L 134.828125 6.863281 C 135.039062 5.878906 135.585938 5 136.378906 4.375 C 137.167969 3.789062 138.132812 3.484375 139.117188 3.507812 C 140.078125 3.472656 141.015625 3.792969 141.753906 4.40625 C 142.480469 5.050781 142.972656 5.914062 143.164062 6.863281 Z M 139.316406 17.234375 C 140.730469 17.269531 142.136719 16.976562 143.421875 16.386719 C 144.5625 15.855469 145.5625 15.066406 146.339844 14.078125 L 143.664062 11.789062 C 142.6875 13.089844 141.140625 13.835938 139.515625 13.789062 C 138.394531 13.828125 137.289062 13.472656 136.398438 12.789062 C 135.535156 12.089844 134.953125 11.097656 134.761719 10 L 146.878906 10 C 146.957031 9.5 146.988281 8.992188 146.980469 8.484375 C 147 6.980469 146.65625 5.496094 145.980469 4.15625 C 145.339844 2.90625 144.355469 1.867188 143.144531 1.160156 C 140.835938 -0.0976562 138.09375 -0.265625 135.648438 0.699219 C 134.679688 1.097656 133.800781 1.691406 133.070312 2.449219 C 132.320312 3.230469 131.738281 4.160156 131.363281 5.175781 C 130.945312 6.289062 130.738281 7.472656 130.753906 8.664062 C 130.742188 10.230469 131.132812 11.777344 131.890625 13.148438 C 132.605469 14.417969 133.664062 15.460938 134.949219 16.148438 C 136.289062 16.875 137.792969 17.25 139.316406 17.234375 Z M 120.03125 13.160156 C 118.742188 13.21875 117.484375 12.726562 116.578125 11.804688 C 115.671875 10.886719 115.199219 9.621094 115.277344 8.332031 C 115.226562 7.050781 115.703125 5.800781 116.59375 4.875 C 117.949219 3.46875 120.03125 3.042969 121.832031 3.792969 C 123.632812 4.546875 124.789062 6.332031 124.738281 8.28125 C 124.78125 9.574219 124.308594 10.832031 123.429688 11.78125 C 122.546875 12.703125 121.308594 13.207031 120.03125 13.160156 Z M 119.902344 23.988281 C 121 24.007812 122.09375 23.863281 123.148438 23.5625 C 124.023438 23.320312 124.839844 22.921875 125.566406 22.382812 C 126.21875 21.863281 126.765625 21.230469 127.1875 20.511719 C 127.617188 19.761719 127.925781 18.949219 128.105469 18.105469 C 128.304688 17.164062 128.402344 16.207031 128.394531 15.246094 L 128.394531 0.28125 L 124.566406 0.28125 L 124.566406 2.007812 L 124.507812 2.007812 C 123.820312 1.359375 123.011719 0.851562 122.128906 0.507812 C 121.238281 0.164062 120.289062 -0.015625 119.332031 -0.0117188 C 117.890625 -0.03125 116.46875 0.34375 115.226562 1.078125 C 114.023438 1.792969 113.042969 2.832031 112.398438 4.078125 C 111.714844 5.417969 111.375 6.90625 111.398438 8.414062 C 111.375 9.921875 111.738281 11.414062 112.457031 12.738281 C 113.132812 13.964844 114.148438 14.96875 115.375 15.636719 C 116.65625 16.316406 118.089844 16.660156 119.542969 16.636719 C 121.433594 16.714844 123.273438 15.988281 124.597656 14.636719 L 124.667969 14.636719 L 124.667969 16.40625 C 124.691406 17.53125 124.214844 18.609375 123.371094 19.355469 C 122.332031 20.191406 121.019531 20.605469 119.691406 20.523438 C 118.726562 20.535156 117.769531 20.402344 116.84375 20.125 C 115.871094 19.785156 114.929688 19.363281 114.027344 18.863281 L 113.117188 22.242188 C 114.101562 22.820312 115.167969 23.253906 116.273438 23.53125 C 117.460938 23.835938 118.679688 23.988281 119.902344 23.988281 Z M 100.636719 13.757812 C 99.339844 13.804688 98.085938 13.292969 97.191406 12.351562 C 96.273438 11.367188 95.789062 10.054688 95.851562 8.710938 C 95.785156 7.320312 96.28125 5.957031 97.230469 4.9375 C 98.117188 3.992188 99.363281 3.472656 100.65625 3.507812 C 101.949219 3.476562 103.1875 4.027344 104.035156 5.003906 C 104.9375 6.03125 105.414062 7.359375 105.375 8.722656 C 105.425781 10.070312 104.933594 11.382812 104.003906 12.359375 C 103.128906 13.277344 101.90625 13.785156 100.636719 13.757812 Z M 100.039062 17.234375 C 102.113281 17.332031 104.101562 16.390625 105.34375 14.726562 L 105.34375 16.996094 L 109 16.996094 L 109 0.28125 L 105.175781 0.28125 L 105.175781 2.277344 L 105.113281 2.277344 C 103.847656 0.78125 101.96875 -0.0546875 100.007812 0.0117188 C 97.835938 -0.0117188 95.753906 0.871094 94.261719 2.449219 C 93.527344 3.25 92.957031 4.183594 92.585938 5.207031 C 92.148438 6.320312 91.925781 7.507812 91.925781 8.703125 C 91.914062 9.898438 92.125 11.089844 92.542969 12.210938 C 92.917969 13.214844 93.488281 14.136719 94.222656 14.917969 C 94.949219 15.660156 95.824219 16.242188 96.789062 16.625 C 97.824219 17.042969 98.925781 17.25 100.039062 17.234375 Z M 89.714844 16.996094 L 89.714844 7.144531 C 89.714844 4.726562 89.175781 2.933594 88.089844 1.769531 C 86.914062 0.5625 85.273438 -0.078125 83.589844 0.0117188 C 82.53125 0 81.480469 0.222656 80.515625 0.660156 C 79.546875 1.089844 78.6875 1.734375 78.007812 2.546875 L 78.007812 0.28125 L 74.140625 0.28125 L 74.140625 16.996094 L 77.9375 16.996094 L 77.9375 8.582031 C 77.859375 7.226562 78.285156 5.894531 79.136719 4.835938 C 79.929688 3.945312 81.082031 3.460938 82.273438 3.507812 C 82.796875 3.492188 83.324219 3.570312 83.820312 3.738281 C 84.246094 3.902344 84.625 4.160156 84.929688 4.496094 C 85.28125 4.90625 85.527344 5.398438 85.640625 5.925781 C 85.832031 6.644531 85.929688 7.386719 85.929688 8.132812 L 85.929688 16.996094 Z M 62.328125 13.757812 C 61.03125 13.804688 59.777344 13.292969 58.882812 12.351562 C 57.972656 11.363281 57.492188 10.054688 57.542969 8.710938 C 57.484375 7.316406 57.992188 5.953125 58.953125 4.9375 C 59.832031 4 61.066406 3.480469 62.347656 3.507812 C 63.640625 3.476562 64.878906 4.027344 65.726562 5.003906 C 66.632812 6.027344 67.117188 7.355469 67.074219 8.722656 C 67.125 10.070312 66.628906 11.382812 65.695312 12.359375 C 64.820312 13.277344 63.597656 13.785156 62.328125 13.757812 Z M 61.730469 17.234375 C 63.804688 17.332031 65.792969 16.390625 67.035156 14.726562 L 67.035156 16.996094 L 70.742188 16.996094 L 70.742188 0.28125 L 66.945312 0.28125 L 66.945312 2.277344 L 66.886719 2.277344 C 65.601562 0.757812 63.6875 -0.0820312 61.699219 0.0117188 C 59.523438 -0.0117188 57.441406 0.878906 55.953125 2.46875 C 55.214844 3.265625 54.640625 4.203125 54.265625 5.226562 C 53.847656 6.335938 53.640625 7.515625 53.65625 8.703125 C 53.644531 9.898438 53.855469 11.089844 54.277344 12.210938 C 54.644531 13.21875 55.214844 14.140625 55.953125 14.917969 C 56.675781 15.664062 57.546875 16.246094 58.511719 16.625 C 59.53125 17.039062 60.621094 17.246094 61.71875 17.234375 Z M 40.417969 16.996094 L 40.417969 8.652344 C 40.339844 7.308594 40.730469 5.976562 41.527344 4.886719 C 42.179688 4.007812 43.210938 3.496094 44.304688 3.507812 C 46.480469 3.507812 47.570312 5.097656 47.570312 8.28125 L 47.570312 16.996094 L 51.398438 16.996094 L 51.398438 7.3125 C 51.542969 5.367188 51.007812 3.433594 49.878906 1.839844 C 48.792969 0.589844 47.191406 -0.0859375 45.542969 0.0117188 C 44.375 -0.0078125 43.21875 0.234375 42.15625 0.71875 C 41.140625 1.195312 40.25 1.90625 39.566406 2.796875 L 39.496094 2.796875 C 38.535156 0.957031 36.570312 -0.128906 34.5 0.03125 C 33.519531 0.03125 32.554688 0.253906 31.675781 0.6875 C 30.75 1.140625 29.941406 1.789062 29.296875 2.585938 L 29.277344 2.585938 L 29.277344 0.28125 L 25.449219 0.28125 L 25.449219 16.996094 L 29.277344 16.996094 L 29.277344 8.652344 C 29.195312 7.304688 29.597656 5.96875 30.40625 4.886719 C 31.09375 3.996094 32.160156 3.484375 33.28125 3.507812 C 35.488281 3.507812 36.59375 5.097656 36.601562 8.28125 L 36.601562 16.996094 Z M 40.417969 16.996094 "/>
<path style=" stroke:none;fill-rule:evenodd;fill:rgb(95.294118%,37.647059%,23.529412%);fill-opacity:1;" d="M 12.988281 0.0117188 C 13.746094 0.0195312 14.46875 0.328125 14.996094 0.867188 C 15.527344 1.410156 15.816406 2.140625 15.808594 2.898438 C 15.871094 3.941406 15.347656 4.9375 14.453125 5.476562 C 13.554688 6.019531 12.433594 6.019531 11.539062 5.476562 C 10.640625 4.9375 10.121094 3.941406 10.183594 2.898438 C 10.160156 1.324219 11.417969 0.03125 12.988281 0.0117188 Z M 2.816406 0.0117188 C 4.390625 0.03125 5.648438 1.324219 5.625 2.898438 C 5.640625 4.46875 4.386719 5.757812 2.816406 5.785156 C 1.242188 5.761719 -0.015625 4.472656 0 2.898438 C -0.0117188 2.140625 0.28125 1.410156 0.808594 0.867188 C 1.339844 0.328125 2.0625 0.0195312 2.816406 0.0117188 Z M 2.816406 10.402344 C 4.34375 10.492188 5.535156 11.753906 5.535156 13.285156 C 5.535156 14.8125 4.34375 16.078125 2.816406 16.167969 C 1.292969 16.078125 0.101562 14.8125 0.101562 13.285156 C 0.101562 11.753906 1.292969 10.492188 2.816406 10.402344 Z M 2.816406 10.402344 "/>
<use xlink:href="#surface5" mask="url(#mask0)"/>
</g>
</svg>
